<?xml version="1.0" standalone="no"?>
<!DOCTYPE svg PUBLIC "-//W3C//DTD SVG 20010904//EN"
 "http://www.w3.org/TR/2001/REC-SVG-20010904/DTD/svg10.dtd">
<svg version="1.0" xmlns="http://www.w3.org/2000/svg"
 width="313.000000pt" height="313.000000pt" viewBox="0 0 313.000000 313.000000"
 preserveAspectRatio="xMidYMid meet">
<metadata>
Created by potrace 1.11, written by Peter Selinger 2001-2013
</metadata>
<g transform="translate(0.000000,313.000000) scale(0.100000,-0.100000)"
fill="#000000" stroke="none">
<path d="M1437 2928 c9 -12 56 -123 59 -140 1 -5 2 -9 4 -10 1 -2 4 -12 6 -23
8 -34 12 -50 14 -50 4 0 10 -44 11 -80 1 -58 -7 -116 -20 -150 -7 -16 -12 -32
-11 -34 1 -2 -5 -8 -14 -13 -9 -5 -16 -14 -16 -19 0 -11 -11 -24 -68 -81 -20
-21 -40 -38 -44 -38 -5 0 -8 -7 -8 -15 0 -8 -3 -14 -7 -13 -11 3 -103 -64
-103 -74 0 -4 -5 -8 -10 -8 -29 0 -290 -250 -290 -277 0 -7 -4 -13 -9 -13 -8
0 -17 -21 -19 -44 0 -5 -4 -12 -9 -15 -12 -8 -41 -82 -48 -123 -3 -18 -9 -37
-14 -43 -9 -12 -6 -228 4 -270 4 -16 7 -39 7 -49 -1 -10 5 -31 12 -45 7 -14
11 -31 9 -38 -2 -6 1 -14 6 -18 6 -3 11 -13 11 -22 0 -30 90 -197 133 -248 60
-71 197 -203 197 -190 0 3 13 -7 29 -21 16 -14 31 -24 33 -22 2 1 14 -7 28
-20 25 -23 125 -83 136 -81 4 0 10 -3 13 -8 10 -14 71 -45 71 -36 0 4 4 3 8
-3 8 -12 95 -54 101 -48 2 2 -2 10 -9 19 -7 8 -9 15 -5 15 4 0 3 6 -2 13 -8
10 -20 39 -59 142 -12 33 -16 66 -17 150 -1 87 4 115 28 151 8 13 12 24 8 24
-5 0 0 5 10 11 9 5 17 15 17 21 0 6 18 29 40 50 22 22 40 44 40 49 0 5 4 8 9
7 5 -2 26 13 47 33 22 19 44 37 49 40 6 2 9 8 7 12 -1 5 1 6 6 3 4 -3 21 6 37
20 15 13 32 24 37 24 5 0 6 5 3 10 -3 6 1 10 9 10 8 0 24 12 35 26 12 15 21
23 21 18 0 -4 14 7 31 24 17 18 36 32 42 32 6 0 8 3 5 6 -4 3 11 21 32 41 45
40 124 159 115 173 -3 6 -2 10 2 10 8 0 32 54 40 90 26 111 23 294 -7 411 -11
46 -25 85 -30 87 -5 2 -6 10 -3 18 3 8 -1 14 -8 14 -7 0 -9 3 -6 6 3 4 1 16
-5 28 -7 11 -12 23 -13 26 -1 14 -67 120 -96 155 -49 58 -170 174 -201 193
-16 9 -28 20 -28 24 0 4 -7 8 -15 8 -9 0 -18 7 -21 15 -4 8 -10 12 -15 9 -5
-3 -12 2 -15 10 -3 8 -15 18 -27 22 -12 4 -27 13 -35 20 -7 8 -18 12 -23 9 -5
-4 -9 -2 -9 3 0 8 -50 36 -59 32 -2 -1 -7 2 -10 7 -3 5 -35 23 -69 41 -67 34
-102 42 -85 20z"/>
<path d="M452 334 c-20 -14 -25 -147 -6 -172 12 -16 88 -17 1089 -17 l1078 0
14 22 c23 34 22 133 0 158 -18 20 -31 20 -1089 20 -783 0 -1075 -3 -1086 -11z"/>
</g>
</svg>
